<svg id="XMLID_26_" xmlns="http://www.w3.org/2000/svg" width="215.5" height="215.6" viewBox="0 0 215.5 215.6">
  <g id="XMLID_35_">
    <path id="XMLID_36_" d="M107.8,83c-18.3,26-29.3,39-21.3,44s-16,14-21,0-11.3-4.7-9.7,5.7c1.7,10.3,76.2,59.5,42.3,81.4a106.385,106.385,0,0,1-68.3-33.4C42.5,151.3,6.7,122.8,1.6,119A105.532,105.532,0,0,1,1,107.7,106.6,106.6,0,0,1,42.1,23.5c.1.1.3-.4.4-.3-1,3.2-4.5,15.1-4.8,26.5v2.9c.1,9.7,2.9,18.5,12.1,20.4.6.1,1.2.2,1.9.3.3,0,.7.1,1,.1h2.4c.5,0,1-.1,1.5-.1h.3c.9-.1,1.8-.2,2.8-.4C95.5,66,126,57,107.8,83Z" fill="#64bc54" stroke="#000" stroke-miterlimit="10" stroke-width="2"/>
  </g>
  <g id="XMLID_31_">
    <path id="XMLID_34_" d="M29.8,180.7A106.3,106.3,0,0,1,1.6,119C6.7,122.8,42.5,151.3,29.8,180.7Z" fill="#5287c1" stroke="#000" stroke-miterlimit="10" stroke-width="2"/>
    <path id="XMLID_33_" d="M159,84.5s7,11.8,3.5,15.8c0,0-2,17.3-10.8,20S138.2,140,149,140s31-3.8,31.3-6.5,10.3-.3,4.8,13.5,7.1,26.3,7.1,26.3a106.527,106.527,0,0,1-84.3,41.3c-3.3,0-6.5-.2-9.7-.4,33.9-21.9-40.6-71.1-42.3-81.4s4.7-19.7,9.7-5.7,29,5,21,0,3-18,21.3-44C126,57,95.5,66,59.5,73c-1,.2-1.9.3-2.8.4h-.3c-.5,0-1,.1-1.5.1H52.5c-.4,0-.7-.1-1-.1-.7-.1-1.3-.2-1.9-.3-9-2-11.9-10.7-12.1-20.4V49.8c.4-11.2,3.8-22.7,4.8-25.9-.1-.1.1-.7.3-.8A106.984,106.984,0,0,1,86,3.2s45.2,37.4,87.3,20.3h0a107.571,107.571,0,0,1,31.4,39.6s-12.8,26.5-33,13C171.7,76.2,160.7,68.7,159,84.5Z" fill="#5287c1" stroke="#000" stroke-miterlimit="10" stroke-width="2"/>
    <path id="XMLID_32_" d="M49.7,73.2c-9.1-2-11.9-10.7-12.1-20.4C37.8,62.4,40.7,71.2,49.7,73.2Z" fill="#5287c1" stroke="#000" stroke-miterlimit="10" stroke-width="2"/>
  </g>
  <g id="XMLID_27_">
    <path id="XMLID_30_" d="M49.7,73.2c-9.1-2-11.9-10.7-12.1-20.4C37.8,62.4,40.7,71.2,49.7,73.2Z" fill="#64bc54" stroke="#000" stroke-miterlimit="10" stroke-width="2"/>
    <path id="XMLID_29_" d="M173.4,23.5C131.3,40.6,86,3.2,86,3.2A111.143,111.143,0,0,1,107.8,1,106.446,106.446,0,0,1,173.4,23.5Z" fill="#64bc54" stroke="#000" stroke-miterlimit="10" stroke-width="2"/>
    <path id="XMLID_28_" d="M214.5,107.8a106.692,106.692,0,0,1-22.4,65.5S179.5,160.8,185,147s-4.5-16.3-4.8-13.5S159.7,140,149,140s-6-17,2.8-19.8,10.8-20,10.8-20c3.5-4-3.5-15.8-3.5-15.8,1.8-15.8,12.8-8.3,12.8-8.3,20.3,13.5,33-13,33-13A108.9,108.9,0,0,1,214.5,107.8Z" fill="#64bc54" stroke="#000" stroke-miterlimit="10" stroke-width="2"/>
  </g>
</svg>
